<?xml version="1.0" encoding="UTF-8"?>
<svg version="1.1" xmlns="http://www.w3.org/2000/svg" width="357" height="370">
<path d="M0 0 C3.3345716 1.61675047 6.50270705 3.48323474 9.6875 5.375 C10.61522217 5.91592285 11.54294434 6.4568457 12.4987793 7.01416016 C14.41507257 8.13206586 16.32921445 9.2536674 18.24121094 10.37890625 C21.49717991 12.29214819 24.76754761 14.17948792 28.03979492 16.06469727 C34.9786929 20.06524141 41.89455058 24.10527763 48.80981445 28.14648438 C60.83195572 35.1711302 72.89856713 42.11298437 85 49 C124.42887043 71.45910958 124.42887043 71.45910958 138.91117382 80.26023674 C141.94142402 82.05596206 141.94142402 82.05596206 145.13064289 83.25549507 C148.68288119 84.82332746 151.20134381 86.29109084 154 89 C155.84218903 94.69128786 155.67526498 100.24093567 155.6003418 106.17529297 C155.62152928 107.9351654 155.64776871 109.69498316 155.67866516 111.45471191 C155.74608981 116.22424257 155.73734903 120.99078479 155.71070075 125.7606101 C155.69535006 129.74678488 155.71726496 133.73240115 155.73911697 137.71851838 C155.79009626 147.12550655 155.77944064 156.53103478 155.72924805 165.93798828 C155.67849203 175.63187331 155.72596288 185.32170501 155.82291669 195.01514709 C155.90309064 203.34772365 155.92481116 211.67904054 155.89937145 220.01196396 C155.8846042 224.98459778 155.89109901 229.95479394 155.95273399 234.92712021 C156.00795716 239.60606094 155.9897934 244.27919352 155.91613579 248.95782471 C155.90115326 250.66978199 155.91148076 252.3821855 155.94958115 254.09378433 C156.20740633 266.6760584 156.20740633 266.6760584 152.50963235 270.5690484 C148.36053712 273.79719494 143.79084832 275.89479937 139 278 C137.50900714 278.8226715 136.02500401 279.65893692 134.5625 280.53125 C133.37598736 281.18928349 132.18851483 281.84558972 131 282.5 C125.77437534 285.4076832 120.6137403 288.39988739 115.5 291.5 C109.1955433 295.31776285 102.80397349 298.95473274 96.37109375 302.55078125 C84.6091684 309.12865634 72.90442037 315.80230926 61.37719727 322.78393555 C55.77422313 326.16492239 50.0751817 329.36238046 44.36328125 332.5546875 C32.62844974 339.11708924 20.96681108 345.8133172 9.375 352.625 C8.67060791 353.0387085 7.96621582 353.45241699 7.24047852 353.87866211 C4.44660408 355.52682956 1.69974284 357.20017144 -1 359 C-8.15954131 359.07526456 -13.4931116 355.1253234 -19.4375 351.5 C-21.58792757 350.21511749 -23.7389704 348.93126416 -25.890625 347.6484375 C-26.93541016 347.02163086 -27.98019531 346.39482422 -29.05664062 345.74902344 C-32.89453435 343.46844359 -36.78111048 341.2853888 -40.6875 339.125 C-46.55160606 335.86425822 -52.25584814 332.40762152 -57.94921875 328.85546875 C-61.81353861 326.50521019 -65.76419379 324.34780211 -69.7578125 322.2265625 C-72 321 -72 321 -75 319 C-75.37259549 317.06523931 -75.37259549 317.06523931 -75.36914349 314.64653587 C-75.37511663 313.72642074 -75.38108978 312.80630561 -75.38724393 311.8583082 C-75.3785054 310.84081448 -75.36976688 309.82332076 -75.36076355 308.7749939 C-75.36332682 307.69931078 -75.3658901 306.62362766 -75.36853105 305.51534808 C-75.37349867 301.88687311 -75.35692676 298.25880815 -75.34057617 294.63037109 C-75.33973054 292.03897613 -75.34020378 289.44758045 -75.34190369 286.85618591 C-75.34347903 281.26475096 -75.33404266 275.67342078 -75.31719017 270.08201218 C-75.29283997 261.9977275 -75.28499899 253.91349364 -75.2812262 245.82917626 C-75.27465544 232.71388824 -75.2546774 219.5986561 -75.22631836 206.48339844 C-75.1987939 193.74088827 -75.17755244 180.99839326 -75.16479492 168.25585938 C-75.16400675 167.47080499 -75.16321858 166.6857506 -75.16240653 165.87690668 C-75.1584915 161.9386373 -75.15470035 158.00036782 -75.15097082 154.06209826 C-75.11985549 121.37469149 -75.06700277 88.68735321 -75 56 C-70.66248878 57.66393112 -66.8192317 59.81681776 -62.875 62.25 C-58.54567842 64.885012 -54.21832008 67.47975632 -49.75 69.875 C-44.47701597 72.7026576 -39.30070428 75.68676559 -34.125 78.6875 C-33.30354492 79.16364746 -32.48208984 79.63979492 -31.63574219 80.13037109 C-29.42160673 81.41657011 -27.20800142 82.70329732 -25 84 C-24.14216132 84.3579556 -23.28432264 84.7159112 -22.40048885 85.08471394 C-20 87 -20 87 -19.40824986 90.47027111 C-19.39808174 91.94679586 -19.41590044 93.42366124 -19.45497131 94.89970398 C-19.45649356 95.7133332 -19.4580158 96.52696242 -19.45958418 97.36524707 C-19.47045273 100.1018663 -19.51688524 102.83675809 -19.56274414 105.57299805 C-19.57720626 107.53086284 -19.58927451 109.48874657 -19.59912109 111.44664001 C-19.6242517 115.66860881 -19.66394742 119.89010777 -19.71406746 124.11185265 C-19.79076802 130.78905255 -19.82011291 137.46592826 -19.83995056 144.14350891 C-19.90254234 163.13359887 -20.00908056 182.1228891 -20.20874023 201.11206055 C-20.31856808 211.59572927 -20.37838012 222.0784551 -20.38292021 232.56271201 C-20.38855334 239.19989756 -20.45559137 245.83272283 -20.56770241 252.46891916 C-20.62267427 256.60297196 -20.61887669 260.73542659 -20.59844208 264.86973 C-20.60065502 266.78388975 -20.62682431 268.69819769 -20.6789608 270.61164856 C-21.27506701 280.17194248 -21.27506701 280.17194248 -17.62983394 288.60082269 C-13.29340428 292.20112315 -7.97611884 295.25673193 -2.22020054 294.76020336 C0.67442372 293.76907528 3.07056607 292.36664206 5.67578125 290.76171875 C6.75150391 290.10623047 7.82722656 289.45074219 8.93554688 288.77539062 C10.04994141 288.08638672 11.16433594 287.39738281 12.3125 286.6875 C25.00119387 278.89333445 25.00119387 278.89333445 31.11547852 275.95532227 C34.81612158 274.07935176 38.29755891 271.82374681 41.8125 269.625 C47.50270323 266.06925076 53.25835535 262.72236025 59.16381836 259.53564453 C63.93188805 256.95398331 68.65241702 254.28869122 73.375 251.625 C74.3134375 251.0990625 75.251875 250.573125 76.21875 250.03125 C78.09540182 248.97275701 79.95620567 247.88553482 81.79777527 246.76712036 C85 245 85 245 88.37666321 243.83615112 C92.4346196 242.15434346 95.49030979 240.6893537 98 237 C100.49168222 228.67995346 99.50456135 219.41487232 99.26953125 210.84375 C99.2452715 208.25448221 99.22677268 205.66515456 99.21379089 203.07580566 C99.16931031 196.96874932 99.06699524 190.86520352 98.93624753 184.75946665 C98.79057298 177.80458645 98.71937556 170.84955475 98.65420687 163.89352703 C98.51858254 149.59405075 98.29015916 135.29713391 98 121 C94.49996642 118.97899877 90.99971615 116.95837337 87.49928284 114.93806458 C86.31378114 114.25377532 85.12833407 113.56939143 83.94294739 112.88490295 C76.28675501 108.46402416 68.62015896 104.06221527 60.9375 99.6875 C54.02810612 95.74684577 47.15069056 91.75747976 40.30151367 87.71313477 C27.66411926 80.25322092 14.93395431 72.95520594 2.18408203 65.68969727 C-4.52815448 61.85772522 -11.20527983 57.96791021 -17.875 54.0625 C-27.06952769 48.67957095 -36.31485352 43.39371174 -45.60302734 38.17407227 C-46.50102051 37.66932373 -47.39901367 37.1645752 -48.32421875 36.64453125 C-49.10885498 36.20471924 -49.89349121 35.76490723 -50.7019043 35.31176758 C-51.83946167 34.66244263 -51.83946167 34.66244263 -53 34 C-53.92143799 33.49170654 -54.84287598 32.98341309 -55.79223633 32.4597168 C-56.88507935 31.73715698 -56.88507935 31.73715698 -58 31 C-58 30.34 -58 29.68 -58 29 C-56.19921875 27.703125 -56.19921875 27.703125 -53.6875 26.25 C-52.30691406 25.44755859 -52.30691406 25.44755859 -50.8984375 24.62890625 C-47.30919199 22.61176962 -43.68766683 20.65864805 -40.0625 18.70703125 C-36.4260324 16.68007163 -32.87075484 14.53536901 -29.3125 12.375 C-25.45385219 10.03279885 -21.62909754 7.71925786 -17.5625 5.75 C-14.11442125 4.05620693 -11.14565896 2.11731696 -8.0546875 -0.14453125 C-4.91392663 -1.45218644 -3.28051815 -0.94872128 0 0 Z " fill="#EFB91F" transform="translate(182,3)"/>
<path d="M0 0 C0 79.2 0 158.4 0 240 C-3.91483578 239.21703284 -5.62743325 238.87306517 -8.80078125 236.98828125 C-9.51911133 236.56683838 -10.23744141 236.14539551 -10.97753906 235.71118164 C-11.74807617 235.2496167 -12.51861328 234.78805176 -13.3125 234.3125 C-15.00128081 233.31767222 -16.69008403 232.32288248 -18.37890625 231.328125 C-19.28012207 230.79380859 -20.18133789 230.25949219 -21.10986328 229.70898438 C-25.25162079 227.25989648 -29.40955106 224.83883612 -33.56713867 222.41674805 C-37.48145814 220.13637247 -41.39262948 217.85062106 -45.30371094 215.56469727 C-47.42105421 214.33597099 -49.54264303 213.11603655 -51.66851807 211.90220642 C-52.7679071 211.2744783 -53.86729614 210.64675018 -55 210 C-55.23356396 186.63478466 -55.40992473 163.26976167 -55.51812172 139.90361595 C-55.56969427 129.05432497 -55.64000824 118.20575913 -55.75439453 107.35693359 C-55.85404253 97.90143849 -55.91857598 88.44646848 -55.94088495 78.9904629 C-55.9539271 73.98286289 -55.98458859 68.97676508 -56.05730057 63.96964645 C-56.1251936 59.25617376 -56.14611492 54.54482113 -56.13107681 49.83090591 C-56.13382752 48.10142235 -56.15371734 46.37186779 -56.19205475 44.64280701 C-56.46798582 31.55580218 -56.46798582 31.55580218 -52.79781723 27.66608047 C-50.235103 26.10148636 -47.82277144 25.00296692 -45 24 C-44.05769531 23.47792969 -43.11539063 22.95585938 -42.14453125 22.41796875 C-41.37496094 22.01191406 -40.60539062 21.60585937 -39.8125 21.1875 C-34.62972854 18.39452132 -29.60318284 15.38075256 -24.57006836 12.33032227 C-19.90550296 9.51437546 -15.17685711 6.85122295 -10.3671875 4.2890625 C-8.67117595 3.36549185 -7.0124712 2.37210855 -5.3828125 1.3359375 C-3 0 -3 0 0 0 Z " fill="#F26C2B" transform="translate(75,62)"/>
<path d="M0 0 C4.30195847 0.86039169 6.02455005 1.38816436 9.515625 3.6015625 C13.36832276 5.99274464 17.24268216 8.32208986 21.171875 10.5859375 C22.24953125 11.20726563 23.3271875 11.82859375 24.4375 12.46875 C25.530625 13.0978125 26.62375 13.726875 27.75 14.375 C28.82765625 14.99632813 29.9053125 15.61765625 31.015625 16.2578125 C36.81035254 19.59667932 42.61157374 22.92391181 48.41894531 26.24072266 C49.05643707 26.60490799 49.69392883 26.96909332 50.35073853 27.34431458 C51.90044988 28.22961739 53.4502188 29.11481945 55 30 C55.2086788 40.58746518 55.36851791 51.17444007 55.46630955 61.76354408 C55.51324995 66.68083025 55.57689459 71.59670808 55.67895508 76.51318359 C55.77686548 81.25953332 55.83058134 86.00453024 55.85389519 90.75181198 C55.87050464 92.56127602 55.90294238 94.37066724 55.95157051 96.17955399 C56.31772577 110.36629336 56.31772577 110.36629336 53.06077576 114.40423584 C50.74260409 115.97685202 48.61259676 117.01278541 46 118 C44.81020497 118.66755991 43.62903229 119.35122404 42.46484375 120.0625 C41.29072865 120.71135745 40.11487803 121.35708227 38.9375 122 C31.63134899 126.0503356 24.40240228 130.22696642 17.1875 134.4375 C16.13103271 135.05302734 15.07456543 135.66855469 13.98608398 136.30273438 C8.42585824 139.54302046 8.42585824 139.54302046 3 143 C2.01 143 1.02 143 0 143 C0 95.81 0 48.62 0 0 Z " fill="#F26D2C" transform="translate(194,110)"/>
<path d="M0 0 C0.99 0.33 1.98 0.66 3 1 C2.67 1.66 2.34 2.32 2 3 C1.90229367 4.43295407 1.86617306 5.87033889 1.8613348 7.30661201 C1.85586036 8.21627696 1.85038591 9.12594191 1.84474558 10.06317246 C1.84376747 11.06899333 1.84278936 12.07481421 1.84178162 13.1111145 C1.83684364 14.17454697 1.83190566 15.23797943 1.82681805 16.33363712 C1.8113794 19.92050253 1.80306524 23.50734995 1.79467773 27.09423828 C1.78510421 29.65607869 1.77509445 32.21791751 1.76467896 34.77975464 C1.74319273 40.3072977 1.72475953 45.83483772 1.70907402 51.36240005 C1.68639001 59.35438782 1.65824516 67.34634896 1.62875474 75.33831416 C1.5810608 88.30381879 1.53780151 101.26933429 1.49731445 114.23486328 C1.45796869 126.8318771 1.41654468 139.42888125 1.37231445 152.02587891 C1.36959018 152.80197231 1.36686591 153.57806571 1.36405908 154.3776771 C1.35037976 158.27099448 1.33665945 162.16431171 1.32291877 166.05762887 C1.20892568 198.37173264 1.1021226 230.68585646 1 263 C0.67 263 0.34 263 0 263 C0 176.21 0 89.42 0 0 Z " fill="#F9E7B3" transform="translate(107,59)"/>
</svg>
